Coordinates
version=1
nRows=8
nColumns=34
inDegrees=yes

Units are S.I. units (second, meters, Newtons, ...)
If the header above contains a line with 'inDegrees', this indicates whether rotational values are in degrees (yes) or radians (no).

endheader
time	pelvis_tilt	pelvis_list	pelvis_rotation	pelvis_tx	pelvis_ty	pelvis_tz	hip_flexion_r	hip_adduction_r	hip_rotation_r	knee_angle_r	ankle_angle_r	subtalar_angle_r	mtp_angle_r	hip_flexion_l	hip_adduction_l	hip_rotation_l	knee_angle_l	ankle_angle_l	subtalar_angle_l	mtp_angle_l	lumbar_extension	lumbar_bending	lumbar_rotation	arm_flex_r	arm_add_r	arm_rot_r	elbow_flex_r	pro_sup_r	arm_flex_l	arm_add_l	arm_rot_l	elbow_flex_l	pro_sup_l
      2.71666670	    -17.21700294	      4.19365505	    -10.48071046	      0.19790055	      0.63176236	     -0.05268602	     75.52560121	     -5.90124405	      4.59859415	     87.81110685	     31.93392685	     -7.18444618	      0.00000000	     75.61654891	    -14.75946497	     -1.55955965	     88.52629935	     26.22038567	     -8.19064289	      0.00000000	    -26.38514730	     -5.89041966	      1.06685728	     90.28975900	      3.08005284	     73.99460719	    119.61464574	     89.00659768	    102.99499769	      3.89543549	     88.71843438	    120.91815752	     70.26807422
      2.73333330	    -17.11079335	      4.12868210	    -10.41677631	      0.19901821	      0.63984287	     -0.05244656	     74.26927122	     -5.90062234	      4.36461618	     86.29066517	     31.44562049	     -7.18747904	      0.00000000	     74.34861891	    -14.67527892	     -1.89221534	     86.99923043	     25.77448963	     -8.37817003	      0.00000000	    -25.91831089	     -5.87598411	      1.06590390	     89.37031578	      2.94839769	     74.01596977	    119.62013640	     89.04064184	    102.31391398	      4.06402915	     89.06261776	    120.95808337	     70.17254833
      2.75000000	    -17.19651392	      4.07976827	    -10.42387321	      0.20086957	      0.64208834	     -0.05386779	     73.48907724	     -6.04081060	      4.09729580	     85.13096943	     30.90371437	     -7.13026598	      0.00000000	     73.48388461	    -14.57205214	     -2.07374893	     85.67065503	     25.66143711	     -8.36930980	      0.00000000	    -25.25989145	     -5.72419119	      1.08340189	     89.02143822	      2.57599554	     73.46869429	    119.44660962	     89.02573972	    102.15737685	      4.46664570	     89.07377954	    121.26465197	     70.11829301
      2.76666670	    -17.16580888	      4.05494089	    -10.48676589	      0.20227281	      0.64997889	     -0.05387088	     72.39019927	     -6.01080781	      3.99495014	     83.62123506	     30.46267374	     -7.52104768	      0.00000000	     72.34679084	    -14.48760481	     -2.44226870	     84.17763160	     25.42948769	     -8.50331670	      0.00000000	    -24.77793296	     -5.71563693	      1.26217018	     88.23952123	      1.98669856	     71.10538532	    119.74980455	     88.96055362	    102.10103167	      4.56779195	     88.55482016	    121.16727382	     69.90516960
      2.78333330	    -17.32413642	      4.10234844	    -10.49358427	      0.20630740	      0.65812538	     -0.05420173	     71.27714251	     -6.10020175	      3.87177864	     81.87696578	     29.98396568	     -7.37944525	      0.00000000	     71.22580408	    -14.29065340	     -2.79682021	     82.57399470	     25.01401002	     -8.68046797	      0.00000000	    -23.90397608	     -5.72453483	      1.32705714	     87.50251384	      1.68187476	     70.27834839	    119.59278522	     88.94786150	    101.60728466	      4.34281203	     88.28594938	    120.98974816	     69.73005045
      2.80000000	    -17.47319831	      4.12121637	    -10.45459469	      0.20794893	      0.66537471	     -0.05320772	     70.11978262	     -6.21415774	      3.64404433	     80.11496595	     29.48019986	     -7.13986206	      0.00000000	     70.02379606	    -14.09623086	     -3.14261017	     80.85088598	     24.74085980	     -8.63053812	      0.00000000	    -22.94967528	     -5.64500605	      1.45351303	     86.85700054	      1.53574526	     70.07808198	    119.61564291	     88.94963690	    101.27285461	      4.54300691	     88.22275559	    121.26189251	     69.67664104
      2.81666670	    -17.35455526	      4.26936813	    -10.51180317	      0.20965523	      0.67356488	     -0.05332695	     68.72657433	     -6.19272064	      3.74321035	     78.31941623	     29.14559210	     -7.41638125	      0.00000000	     68.48191002	    -13.78502673	     -3.59031113	     79.06379973	     24.18280817	     -9.28787494	      0.00000000	    -22.21781173	     -5.77067808	      1.88870606	     86.25845625	      1.12303272	     69.29598316	    119.28722082	     88.96014902	    100.72273321	      4.54877938	     87.93752338	    121.33439076	     69.50553690
      2.83333330	    -17.30459247	      4.27829669	    -10.54286469	      0.21580188	      0.68033829	     -0.05202058	     67.19366148	     -6.20640969	      3.62801320	     76.35585819	     28.74226506	     -7.36510628	      0.00000000	     66.96399002	    -13.57113820	     -3.83466754	     77.24163011	     23.88075323	     -9.37328023	      0.00000000	    -21.23677475	     -5.73199754	      2.13829898	     85.59797725	      0.60205687	     68.76864934	    119.57359495	     88.98513244	    100.19637435	      4.10183023	     87.74619025	    121.45047475	     69.39078549
